<svg xmlns="http://www.w3.org/2000/svg" width="100" height="100" fill="none"><g clip-path="url(#a)"><rect width="100" height="100" fill="#222" rx="12"/><rect width="100" height="100" fill="url(#b)" rx="12"/><path fill="#fff" d="m56.9 86.7-1.5-.2a118.8 118.8 0 0 1-9.6-1 285 285 0 0 0-11-1.4 21 21 0 0 1-2.6-6.3A15.8 15.8 0 0 1 33 69l.8-2c3.7.2 7.1 1.1 10.5 2.6 3.4 1.6 6.5 3.3 9.4 5.3l2.6-1.1.6-4.2a11 11 0 0 0-.4-4l-5.7-2.2a102.4 102.4 0 0 1-14.3-8.2c-2-1.5-3.5-2.9-4.2-4.1a211.7 211.7 0 0 1-1.6-15.9c0-2-.2-3.5-.4-4.8 2.2-3.4 4.6-6.2 7.3-8.3 2.7-2 5.7-3.8 9-5.2a93.6 93.6 0 0 1 10.2 4.8l14.3-.7a22 22 0 0 1-1 14.2c-.7 1.8-1.6 3.2-2.5 4.4a7.9 7.9 0 0 1-2.3 2 47.6 47.6 0 0 1-11.3-5c-2.1-1.2-4-2.8-5.9-4.6h-.6l-1.7 9.3A156.7 156.7 0 0 1 66 56.2c2.4 2.2 4.2 4.2 5.5 6.1.1 1.4 0 3.2-.4 5.4a77.3 77.3 0 0 1-2.5 10.6 57.2 57.2 0 0 1-5.3 4.7c-1.9 1.5-4 2.7-6.3 3.7Z"/><path fill="url(#c)" fill-rule="evenodd" d="m53.4 79 15.8-28 3.6 6.4-4.2 7.5H77l1.8 3.2-1.8 3.3H65L60.6 79h-7.2Z" clip-rule="evenodd"/><path fill="url(#d)" fill-rule="evenodd" d="M41.2 79.5h32l-3.7 6.4H61l4.3 7.5-1.8 3.2h-3.8l-6-10.7h-8.7l-3.7-6.4Z" clip-rule="evenodd"/><path fill="url(#e)" fill-rule="evenodd" d="m47 24.6-16 28-3.8-6.3 4.3-7.5H23l-1.8-3.3 1.8-3.3h12.2l4.4-7.6h7.3Z" clip-rule="evenodd"/><path fill="url(#f)" fill-rule="evenodd" d="M58.2 24.2H26.6l3.6-6.5h8.4l-4.2-7.5L36.2 7H40l6 10.7h8.6l3.7 6.5Z" clip-rule="evenodd"/></g><defs><linearGradient id="c" x1="55.4" x2="67.5" y1="82.3" y2="62.2" gradientUnits="userSpaceOnUse"><stop offset="1" stop-color="#5277C3"/></linearGradient><linearGradient id="d" x1="64.8" x2="52.8" y1="66.3" y2="45.9" gradientUnits="userSpaceOnUse"><stop offset=".2" stop-color="#7EB1DD"/></linearGradient><linearGradient id="e" x1="71.8" x2="59.8" y1="33.9" y2="13.5" gradientUnits="userSpaceOnUse"><stop offset=".2" stop-color="#7EB1DD"/></linearGradient><linearGradient id="f" x1="61.4" x2="73.6" y1="49.9" y2="29.8" gradientUnits="userSpaceOnUse"><stop offset="1" stop-color="#5277C3"/></linearGradient><radialGradient id="b" cx="0" cy="0" r="1" gradientTransform="matrix(0 50 -50 0 50 50)" gradientUnits="userSpaceOnUse"><stop offset=".5" stop-color="#091A3D"/><stop offset="1" stop-color="#000819"/></radialGradient><clipPath id="a"><rect width="100" height="100" fill="#fff" rx="12"/></clipPath></defs></svg>